<svg xmlns="http://www.w3.org/2000/svg" width="490.874" height="481.515" viewBox="0 0 490.874 481.515">
  <g id="Awesome_Shiny_Things_Icon" data-name="Awesome Shiny Things Icon" transform="translate(-220.997 -284.116)">
    <path id="Shadow" d="M143.661,485.828,83.323,472.589,73.49,452.218l3.805-71,86.231-164.472.356-.687L90.429,136.18l1.49-27.808,11.542-2.678,72.462,78.787L210.092,80.955l27.491-6.378,15.409,24.157L240.538,85.19,204.556,194.224l116.721-21.232-12.031-13.084,35.478-6,139.5,151.812L429.655,485.672l-69.339.038,1.263-7.233-127.434,7.3Zm159-118.839h0l-183.3,86.526.465,2.078,264.191-.147-81.353-88.457Zm142.43-36.118h0v.006L334.814,357.283l76.858,83.571L445.1,330.877ZM185.634,239.7,81.764,437.825,279.881,344.3l1.348-.638Zm172.79-26.314L327.494,327.94,439.169,301.2ZM330.148,202.12h0l-118.235,21.5,86.912,94.509,31.324-116.01Z" transform="translate(174.342 264.48)" fill="#1f1723" opacity="0.15"/>
    <path id="AST_-_Dark" data-name="AST - Dark" d="M5929.895-2832.418l184.24-39.517,41.648,45.321-13.884,29.541-26.753-29.095-35.988,109.035,116.724-21.232-35.283-38.374,28.644-13.463,169.587,184.554-54.572,179.958-398.257.22Zm64.069,374.578.467,2.079,264.188-.148-81.347-88.462Zm215.46-96.238,76.852,83.572,33.427-109.977Zm-253.056,80.548,198.122-93.533,1.343-.633-95.593-103.954Zm-14.824-41.328,2.047.569,94.542-180.33.355-.68-81.165-88.268h-.006Zm260.559-68.569,111.669-26.729-80.738-87.812Zm-115.587-104.307,86.914,94.509,31.321-116.016Zm-113.17-123.073,77.182,83.927,35.693-108.145Zm348.79,97.709-31.271,14.7,14.7-31.27-14.7-31.268,31.27,14.7,31.268-14.7-14.7,31.268,14.7,31.27Zm-161.655-82.745,0,0h0l26.12-55.571-26.12-55.569,55.571,26.116,55.571-26.116-26.119,55.569,26.119,55.571-55.571-26.116-39.1,18.378,0,0-16.466,7.738Zm207.02-31.329-29.379,13.808,13.808-29.377-13.808-29.377,29.379,13.808,29.375-13.808-13.807,29.377,13.807,29.377Z" transform="translate(-5685.003 3191.099)" fill="#ffffff"/>
  </g>
</svg>
