<svg xmlns="http://www.w3.org/2000/svg" width="1478.006" height="513.801" viewBox="0 0 1478.006 513.801">
  <g id="Awesome_Shiny_Things_-_White" data-name="Awesome Shiny Things - White" transform="translate(-220.997 -283.099)">
    <path id="Shadow" d="M143.661,485.828,83.323,472.589,73.49,452.218l3.805-71,86.231-164.472.356-.687L90.429,136.18l1.49-27.808,11.542-2.678,72.462,78.787L210.092,80.955l27.491-6.378,15.409,24.157L240.538,85.19,204.556,194.224l116.721-21.232-12.031-13.084,35.478-6,139.5,151.812L429.655,485.672l-69.339.038,1.263-7.233-127.434,7.3Zm159-118.839h0l-183.3,86.526.465,2.078,264.191-.147-81.353-88.457Zm142.43-36.118h0v.006L334.814,357.283l76.858,83.571L445.1,330.877ZM185.634,239.7,81.764,437.825,279.881,344.3l1.348-.638Zm172.79-26.314L327.494,327.94,439.169,301.2ZM330.148,202.12h0l-118.235,21.5,86.912,94.509,31.324-116.01Z" transform="translate(174.342 264.48)" fill="#fff" opacity="0.15"/>
    <path id="AST_-_Light" data-name="AST - Light" d="M6432.145-2394.2V-2908h27.75v513.8Zm700.6-34.648a36.576,36.576,0,0,1-15.854-12.033,32.871,32.871,0,0,1-6.262-19.187h29.593q.65,6.342,4.391,9.674a14.107,14.107,0,0,0,9.755,3.334q6.179,0,9.756-2.846a9.516,9.516,0,0,0,3.578-7.886,9.343,9.343,0,0,0-2.844-6.991,22.968,22.968,0,0,0-6.993-4.554,112.8,112.8,0,0,0-11.789-4.062,128.781,128.781,0,0,1-18.047-6.829,33.379,33.379,0,0,1-12.034-10.083q-5.04-6.666-5.039-17.4,0-15.936,11.543-24.959t30.082-9.026q18.861,0,30.406,9.026t12.356,25.122h-30.079a11.77,11.77,0,0,0-4.066-8.7,14.321,14.321,0,0,0-9.593-3.172,11.967,11.967,0,0,0-8.13,2.683q-3.088,2.685-3.089,7.725,0,5.526,5.205,8.616t16.258,6.667a149.9,149.9,0,0,1,17.966,7.155,34.154,34.154,0,0,1,11.951,9.918q5.04,6.5,5.041,16.746a32.856,32.856,0,0,1-4.96,17.723,34.708,34.708,0,0,1-14.389,12.682q-9.429,4.717-22.275,4.717A58.7,58.7,0,0,1,7132.745-2428.846Zm-134.606-3.661a52.681,52.681,0,0,1-20.648-20.569q-7.4-13.168-7.4-30.077t7.4-30.163a52.683,52.683,0,0,1,20.569-20.65q13.17-7.4,30.079-7.4,20.49,0,34.553,9.92t18.616,27.477h-30.73a20.808,20.808,0,0,0-8.859-8.7,29.025,29.025,0,0,0-13.579-3.006q-13.5,0-21.625,8.86t-8.13,23.66q0,15.769,8.537,24.631t23.5,8.864q10.242,0,17.314-5.2t10.325-14.959h-35.282v-20.488h60.487v25.853a54.585,54.585,0,0,1-10.49,19.349,55.3,55.3,0,0,1-18.779,14.47,58.036,58.036,0,0,1-25.691,5.53Q7011.393-2425.109,6998.139-2432.507ZM5929.895-2832.418l184.24-39.517,41.648,45.321-13.884,29.541-26.753-29.095-35.988,109.035,116.724-21.232-35.283-38.374,28.644-13.463,169.587,184.554-54.572,179.958-398.257.22Zm64.069,374.578.467,2.079,264.188-.148-81.347-88.462Zm215.46-96.238,76.852,83.572,33.427-109.977Zm-253.056,80.548,198.122-93.533,1.343-.633-95.593-103.954Zm-14.824-41.328,2.047.569,94.542-180.33.355-.68-81.165-88.268h-.006Zm260.559-68.569,111.669-26.729-80.738-87.812Zm-115.587-104.307,86.914,94.509,31.321-116.016Zm-113.17-123.073,77.182,83.927,35.693-108.145Zm803.694,384.958v-115.767h27.8v115.767Zm-61.9,0v-46.992h-43.25v46.992h-27.8v-115.767h27.8v46.337h43.25v-46.337h27.8v115.767Zm-152.406,0v-90.242h-30.244v-25.525h88.29v25.525h-30.243v90.242Zm350.014-.073-46.5-70.4v70.4h-27.8v-114.143h27.8l46.5,70.729v-72.355h27.8v115.769Zm95.443-164.637v-38.86l-39.51-76.419h31.542l22.114,47.8,21.951-47.8h31.217L7036-2629.419v38.86Zm-169.75,0,.649-115.279h27.8l46.5,70.727v-70.727h27.8V-2591.7h-27.8l-46.5-70.4-.65,71.54Zm-61.406,0v-115.279h27.8v115.279Zm-61.9,0v-48.129h-43.25v48.129h-27.8v-115.279h27.8v44.712h43.25v-44.712h27.8v115.279Zm-160.862-4.064a36.587,36.587,0,0,1-15.853-12.031,32.86,32.86,0,0,1-6.259-19.187h29.59q.65,6.342,4.391,9.675a14.118,14.118,0,0,0,9.755,3.332q6.179,0,9.755-2.844a9.519,9.519,0,0,0,3.578-7.887,9.348,9.348,0,0,0-2.844-6.993,23.04,23.04,0,0,0-6.992-4.552,112.306,112.306,0,0,0-11.789-4.064,128.346,128.346,0,0,1-18.047-6.828,33.365,33.365,0,0,1-12.032-10.08q-5.042-6.668-5.041-17.4,0-15.932,11.543-24.959t30.082-9.022q18.861,0,30.406,9.022t12.358,25.122H6586.8a11.774,11.774,0,0,0-4.066-8.7,14.327,14.327,0,0,0-9.593-3.17,11.954,11.954,0,0,0-8.13,2.684q-3.089,2.681-3.089,7.722,0,5.529,5.2,8.618t16.26,6.665a150.082,150.082,0,0,1,17.968,7.157,34.194,34.194,0,0,1,11.949,9.918q5.043,6.5,5.041,16.746a32.844,32.844,0,0,1-4.96,17.723A34.7,34.7,0,0,1,6599-2595.273c-6.287,3.144-9.375,4.715-17.939,4.715C6572.709-2590.559,6560.893-2591.914,6554.282-2594.623ZM6322.135-2713.1l-31.271,14.7,14.7-31.27-14.7-31.268,31.27,14.7,31.268-14.7-14.7,31.268,14.7,31.27Zm692.671-12.872-23.9-8.616,23.9-8.616,8.619-23.9,8.618,23.9,23.9,8.616-23.9,8.616-8.618,23.9Zm40.188-37.917a55.925,55.925,0,0,1-21.3-20.891,58.413,58.413,0,0,1-7.885-30.162,57.972,57.972,0,0,1,7.885-30.081,56.118,56.118,0,0,1,21.3-20.812,59.58,59.58,0,0,1,29.512-7.477,59.572,59.572,0,0,1,29.51,7.477,54.916,54.916,0,0,1,21.136,20.813,58.9,58.9,0,0,1,7.725,30.081,58.872,58.872,0,0,1-7.806,30.162,55.5,55.5,0,0,1-21.136,20.891,59.105,59.105,0,0,1-29.429,7.479A59.559,59.559,0,0,1,7054.995-2763.886Zm7.479-75.279q-8.211,8.941-8.211,24.226,0,15.12,8.211,24.146t22.033,9.022q13.657,0,21.869-9.1t8.21-24.065q0-15.12-8.21-24.145t-21.869-9.026Q7070.686-2848.11,7062.474-2839.165Zm-118.506,78.695a36.559,36.559,0,0,1-15.851-12.031,32.863,32.863,0,0,1-6.263-19.187h29.592q.653,6.342,4.393,9.675a14.118,14.118,0,0,0,9.755,3.332q6.179,0,9.756-2.844a9.52,9.52,0,0,0,3.575-7.885,9.332,9.332,0,0,0-2.845-6.993,23,23,0,0,0-6.991-4.554,112.388,112.388,0,0,0-11.786-4.064,128,128,0,0,1-18.05-6.828,33.348,33.348,0,0,1-12.032-10.08q-5.04-6.668-5.041-17.4,0-15.933,11.545-24.959t30.082-9.022q18.861,0,30.4,9.022t12.356,25.124H6976.49a11.778,11.778,0,0,0-4.066-8.7,14.325,14.325,0,0,0-9.593-3.17,11.956,11.956,0,0,0-8.129,2.683q-3.092,2.682-3.089,7.725,0,5.526,5.2,8.616t16.258,6.667a149.708,149.708,0,0,1,17.967,7.155,34.2,34.2,0,0,1,11.952,9.918q5.041,6.5,5.039,16.746a32.879,32.879,0,0,1-4.958,17.723,34.738,34.738,0,0,1-14.389,12.682q-9.434,4.717-22.278,4.715A58.731,58.731,0,0,1,6943.968-2760.471Zm370.12,2.927v-114.141h69.918v22.274H7341.9v23.09h37.234v21.461H7341.9v25.04h42.11v22.276Zm-51.051,0V-2826l-25.529,68.453H7215.07l-25.691-68.615v68.615h-27.8v-114.141h32.844l32.031,79.021,31.708-79.021h32.682v114.141Zm-435.648,0v-114.141H6897.3v22.274h-42.111v23.09h37.234v21.461h-37.234v25.04H6897.3v22.276Zm-83.9,0-18.21-75.119-18.86,75.119H6672.76l-28.942-114.141h29.755l16.422,83.085,20.324-83.085h30.567L6760.4-2788.6l16.582-83.085H6806.9l-29.753,114.141Zm-125.851,0-6.827-20.162h-42.6l-6.829,20.162h-29.106l41.3-114.141h32.2l41.3,114.141Zm-42.111-41.625h28.13l-14.146-41.787Zm-415.047,3.326,0,0h0l26.12-55.571-26.12-55.569,55.571,26.116,55.571-26.116-26.119,55.569,26.119,55.571-55.571-26.116-39.1,18.378,0,0-16.466,7.738Zm207.02-31.329-29.379,13.808,13.808-29.377-13.808-29.377,29.379,13.808,29.375-13.808-13.807,29.377,13.807,29.377Z" transform="translate(-5685.003 3191.099)" fill="#fff"/>
  </g>
</svg>
